 =!                      DK GROUP HD BLURAY RELEAESEES!=

===================================================================================

       Jurassic Park-3(2001)720p Bluray Rip InHindi-Eng-Tamil6CH-AC3 By !!!dip

===================================================================================

Storyline:

Dr. Alan Grant is now a happy man with the previous incidents of Jurassic Park now behind him. Grant is that happy that he announce in public, that nothing on Earth can persuade him back onto the islands. Maybe nothing, except Paul Kirby. Kirby and his wife, Amanda want a plane to fly them over Isla Sorna, with Dr. Grant as their guide. But not everything Kirby says is true. When the plane lands, Dr. Grant realizes that there is another reason why they are there, that he doesn't know of. Now, Dr. Grant is stuck on an island he has never been on before, with what was a plane journey now turned into a search party.


Cast:

Sam Neill...............Dr. Alan Grant
William H. Macy.........Paul Kirby
Téa Leoni...............Amanda Kirby
Alessandro Nivola.......Billy Brennan
Trevor Morgan...........Erik Kirby
Michael Jeter...........Mr. Udesky
John Diehl..............Cooper
Bruce A. Young..........M.B. Nash
Laura Dern..............Dr. Ellie Sattler
Taylor Nichols..........Mark Degler
Mark Harelik............Ben Hildebrand
Julio Oscar Mechoso.....Enrique Cardoso
Blake Michael Bryan.....Charlie (as Blake Bryan)
Sarah Danielle Madison..Cheryl Logan
Linda Park..............Hannah


Directors :Joe Johnston
Writers :Michael Crichton (characters), Peter Buchman
Stars: Sam Neill, William H. Macy and Téa Leoni
Genre:Action | Adventure | Sci-Fi
Language: English-Hindi
Format : Color, Dubbed,Widescreen
Release Date :18 July 2001 (USA)
Run Time : 01H:28M:33S
Encoder: Deep Shikha

Box Office
Budget: $93,000,000 (estimated)
Opening Weekend: $50,771,645 (USA) (22 July 2001) (3434 Screens)
Gross: $365,900,000 (Worldwide) (2001)

Production Dates
30 August 2000 -  January 2001

Filming Dates
30 August 2000 - 20 January 2001



Video Specifications:


Video
ID                               : 1
Format                           : AVC
Format/Info                      : Advanced Video Codec
Format profile                   : High@L4.1
Format settings, CABAC           : Yes
Format settings, ReFrames        : 3 frames
Muxing mode                      : Header stripping
Codec ID                         : V_MPEG4/ISO/AVC
Duration                         : 1h 28mn
Nominal bit rate                 : 1 899 Kbps
Width                            : 1 280 pixels
Height                           : 688 pixels
Display aspect ratio             : 1.860
Frame rate                       : 25.000 fps
Original frame rate              : 23.976 fps
Color space                      : YUV
Chroma subsampling               : 4:2:0
Bit depth                        : 8 bits
Scan type                        : Progressive
Bits/(Pixel*Frame)               : 0.086
Title                            : !!!dip
Team                             : DK Group HD Bluray Releases


Audio Specifications:


Audio #1
ID                               : 2
Format                           : AAC
Format/Info                      : Advanced Audio Codec
Format profile                   : LC
Codec ID                         : A_AAC
Duration                         : 1h 28mn
Channel(s)                       : 6 channels
Channel positions                : Front: L C R, Side: L R, LFE
Sampling rate                    : 48.0 KHz
Compression mode                 : Lossy
Title                            : !!!dip
Language                         : English

Audio #2
ID                               : 3
Format                           : AC-3
Format/Info                      : Audio Coding 3
Mode extension                   : CM (complete main)
Muxing mode                      : Header stripping
Codec ID                         : A_AC3
Duration                         : 1h 28mn
Bit rate mode                    : Constant
Bit rate                         : 448 Kbps
Channel(s)                       : 6 channels
Channel positions                : Front: L C R, Side: L R, LFE
Sampling rate                    : 48.0 KHz
Bit depth                        : 16 bits
Compression mode                 : Lossy
Delay relative to video          : 1s 0ms
Stream size                      : 284 MiB (15%)
Title                            : !!!dip
Language                         : Hindi

Audio #3
ID                               : 4
Format                           : AC-3
Format/Info                      : Audio Coding 3
Mode extension                   : CM (complete main)
Muxing mode                      : Header stripping
Codec ID                         : A_AC3
Duration                         : 1h 28mn
Bit rate mode                    : Constant
Bit rate                         : 192 Kbps
Channel(s)                       : 2 channels
Channel positions                : Front: L R
Sampling rate                    : 48.0 KHz
Bit depth                        : 16 bits
Compression mode                 : Lossy
Delay relative to video          : 1s 111ms
Stream size                      : 122 MiB (7%)
Title                            : !!!dip
Language                         : Tamil


SAMPLE IMAGE:
    
http://www.pix2links.com/image/1gOs.jpg 
http://www.pix2links.com/image/4H8Nb.jpg 
http://www.pix2links.com/image/9T3Cn.jpg 
http://www.pix2links.com/image/cWO9.jpg 
http://www.pix2links.com/image/9kXVa.jpg 
http://www.pix2links.com/image/m9Osc.jpg


SAMPLE VIDEO INCLUDED:		